<?xml version="1.0" encoding="UTF-8"?>
<!DOCTYPE svg PUBLIC "-//W3C//DTD SVG 1.1//EN" "http://www.w3.org/Graphics/SVG/1.1/DTD/svg11.dtd">
<!-- Creator: CorelDRAW X8 -->
<svg xmlns="http://www.w3.org/2000/svg" xml:space="preserve" width="2103px" height="919px" version="1.1" shape-rendering="geometricPrecision" text-rendering="geometricPrecision" image-rendering="optimizeQuality" fill-rule="evenodd" clip-rule="evenodd"
viewBox="0 0 1783 779"
 xmlns:xlink="http://www.w3.org/1999/xlink">
 <defs>
   <linearGradient id="id0" gradientUnits="userSpaceOnUse" x1="389.673" y1="0.00100143" x2="389.673" y2="779.347">
    <stop offset="0" stop-opacity="1" stop-color="#9EE044"/>
    <stop offset="1" stop-opacity="1" stop-color="#64A44D"/>
   </linearGradient>
 </defs>
 <g id="Слой_x0020_1">
  <metadata id="CorelCorpID_0Corel-Layer"/>
  <circle id="Ellipse_187" fill="url(#id0)" cx="390" cy="390" r="390" data-name="Ellipse 187"/>
  <polygon fill="#FEFEFE" fill-rule="nonzero" points="369,447 369,479 237,479 237,308 366,308 366,340 276,340 276,377 355,377 355,408 276,408 276,447 "/>
  <path id="1" fill="#FEFEFE" fill-rule="nonzero" d="M482 482c-18,0 -34,-4 -48,-11 -14,-8 -25,-18 -33,-32 -8,-13 -12,-28 -12,-45 0,-17 4,-32 12,-46 8,-13 19,-24 33,-31 14,-8 30,-11 48,-11 15,0 28,2 40,7 12,6 22,13 30,23l-25 23c-12,-13 -26,-20 -43,-20 -11,0 -20,3 -28,7 -9,5 -15,11 -20,20 -4,8 -7,17 -7,28 0,10 3,20 7,28 5,8 11,15 20,19 8,5 17,7 28,7 17,0 31,-6 43,-20l25 24c-8,9 -18,17 -30,22 -12,5 -26,8 -40,8z"/>
  <path id="2" fill="#FEFEFE" fill-rule="nonzero" d="M658 482c-18,0 -34,-4 -48,-11 -15,-8 -26,-19 -34,-32 -8,-13 -12,-28 -12,-45 0,-17 4,-32 12,-45 8,-14 19,-24 34,-32 14,-8 30,-11 48,-11 17,0 33,3 47,11 15,8 26,18 34,32 8,13 12,28 12,45 0,17 -4,32 -12,45 -8,13 -19,24 -34,32 -14,7 -30,11 -47,11zm0 -34c10,0 19,-2 27,-7 8,-4 14,-11 19,-19 5,-8 7,-18 7,-28 0,-11 -2,-20 -7,-28 -5,-9 -11,-15 -19,-20 -8,-4 -17,-7 -27,-7 -10,0 -20,3 -28,7 -8,5 -14,11 -19,20 -4,8 -7,17 -7,28 0,10 3,20 7,28 5,8 11,15 19,19 8,5 18,7 28,7z"/>
  <path fill="#2B2A29" fill-rule="nonzero" d="M865 482c-14,0 -27,-2 -39,-5 -13,-4 -23,-9 -31,-15l14 -29c7,5 16,9 26,12 10,4 20,5 30,5 11,0 20,-1 25,-5 5,-3 8,-7 8,-13 0,-4 -2,-7 -5,-10 -3,-3 -7,-5 -12,-7 -5,-1 -12,-3 -20,-5 -13,-3 -24,-6 -32,-9 -8,-3 -15,-8 -21,-15 -6,-7 -9,-16 -9,-27 0,-10 2,-19 8,-27 5,-8 13,-15 24,-19 11,-5 24,-7 40,-7 11,0 21,1 32,3 10,3 19,7 27,12l-12 30c-16,-9 -32,-14 -48,-14 -11,0 -19,2 -24,6 -5,3 -8,8 -8,14 0,6 3,10 9,13 6,3 16,5 28,8 13,3 24,6 32,9 8,4 15,8 21,15 6,7 9,16 9,27 0,10 -3,19 -8,27 -5,8 -14,14 -24,19 -11,5 -25,7 -40,7z"/>
  <polygon fill="#2B2A29" fill-rule="nonzero" points="1051,419 1051,479 1011,479 1011,418 945,308 987,308 1033,384 1078,308 1117,308 "/>
  <path fill="#2B2A29" fill-rule="nonzero" d="M1182 482c-13,0 -26,-2 -39,-5 -13,-4 -23,-9 -30,-15l13 -29c7,5 16,9 26,12 10,4 20,5 30,5 12,0 20,-1 25,-5 6,-3 8,-7 8,-13 0,-4 -1,-7 -5,-10 -3,-3 -7,-5 -12,-7 -5,-1 -11,-3 -20,-5 -13,-3 -23,-6 -32,-9 -8,-3 -15,-8 -21,-15 -6,-7 -9,-16 -9,-27 0,-10 3,-19 8,-27 5,-8 14,-15 24,-19 11,-5 24,-7 40,-7 11,0 21,1 32,3 10,3 19,7 27,12l-12 30c-16,-9 -32,-14 -47,-14 -11,0 -20,2 -25,6 -5,3 -8,8 -8,14 0,6 3,10 9,13 7,3 16,5 28,8 13,3 24,6 32,9 9,4 16,8 22,15 6,7 8,16 8,27 0,10 -2,19 -8,27 -5,8 -13,14 -24,19 -11,5 -24,7 -40,7z"/>
  <polygon fill="#2B2A29" fill-rule="nonzero" points="1321,341 1266,341 1266,308 1415,308 1415,341 1360,341 1360,479 1321,479 "/>
  <polygon fill="#2B2A29" fill-rule="nonzero" points="1570,447 1570,479 1438,479 1438,308 1567,308 1567,340 1477,340 1477,377 1556,377 1556,408 1477,408 1477,447 "/>
  <polygon fill="#2B2A29" fill-rule="nonzero" points="1746,479 1746,377 1695,461 1678,461 1628,379 1628,479 1591,479 1591,308 1623,308 1687,415 1750,308 1782,308 1783,479 "/>
 </g>
</svg>
